ffmpeg started on 2025-05-05 at 20:00:10
Report written to "D:\Convert\FFMetrics\reports\ssim_report-6.txt"
Log level: 32
Command line:
ffmpeg -hide_banner -nostdin -i "G:\\\xc0\xed\xe8\xec\xe5\\\xce\xed\xe3\xee\xe8\xed\xe3\xe8\\!_35_\xcb\xe5\xf2\xee_2024\\JamClub\\\xdf \xef\xe0\xf0\xe8\xf0\xee\xe2\xe0\xeb \xe2\xf1\xb8 \xe2\xf0\xe5\xec\xff, \xf7\xf2\xee\xe1\xfb \xf1\xf2\xe0\xf2\xfc \xf1\xe8\xeb\xfc\xed\xe5\xe9\xf8\xe8\xec \xe0\xe2\xe0\xed\xf2\xfe\xf0\xe8\xf1\xf2\xee\xec\\JamClub_I_Parry_Everything_12_1080p_HEVC.mkv" -i "G:\\\xc0\xed\xe8\xec\xe5\\\xce\xed\xe3\xee\xe8\xed\xe3\xe8\\!_35_\xcb\xe5\xf2\xee_2024\\JamClub\\\xdf \xef\xe0\xf0\xe8\xf0\xee\xe2\xe0\xeb \xe2\xf1\xb8 \xe2\xf0\xe5\xec\xff, \xf7\xf2\xee\xe1\xfb \xf1\xf2\xe0\xf2\xfc \xf1\xe8\xeb\xfc\xed\xe5\xe9\xf8\xe8\xec \xe0\xe2\xe0\xed\xf2\xfe\xf0\xe8\xf1\xf2\xee\xec\\JamClub_I_Parry_Everything_12_1080p.mp4" -lavfi "[0:v]settb=AVTB,setpts=PTS-STARTPTS,format=pix_fmts=yuv420p10,fps=24000/1001,scale=1920:1080:flags=bicubic[main];[1:v]settb=AVTB,setpts=PTS-STARTPTS,format=pix_fmts=yuv420p,fps=24000/1001,scale=1920:1080:flags=bicubic[ref];[main][ref]ssim=eof_action=endall:stats_file='D\\:/Convert/FFMetrics/logs/ssim_logfile-6.txt'" -f null -
Input #0, matroska,webm, from 'G:\Аниме\Онгоинги\!_35_Лето_2024\JamClub\Я парировал всё время, чтобы стать сильнейшим авантюристом\JamClub_I_Parry_Everything_12_1080p_HEVC.mkv':
  Metadata:
    COMPATIBLE_BRANDS: isomiso2avc1mp41
    MAJOR_BRAND     : isom
    MINOR_VERSION   : 512
    ENCODER         : Lavf61.7.100
  Duration: 00:24:04.67, start: -0.001000, bitrate: 1326 kb/s
  Stream #0:0: Video: hevc (Main 10), yuv420p10le(tv, bt709, progressive), 1920x1080 [SAR 1:1 DAR 16:9], 23.98 fps, 23.98 tbr, 1k tbn (default)
      Metadata:
        HANDLER_NAME    : VideoHandler
        VENDOR_ID       : [0][0][0][0]
        ENCODER         : Lavc61.19.100 libx265
        BPS             : 1129054
        DURATION        : 00:24:04.651708333
        NUMBER_OF_FRAMES: 34637
        NUMBER_OF_BYTES : 203886189
        _STATISTICS_WRITING_APP: mkvpropedit v66.0.0 ('Josie') 64-bit
        _STATISTICS_WRITING_DATE_UTC: 2025-05-05 12:05:24
        _STATISTICS_TAGS: BPS DURATION NUMBER_OF_FRAMES NUMBER_OF_BYTES
  Stream #0:1(eng): Audio: aac (LC), 48000 Hz, stereo, fltp (default)
      Metadata:
        HANDLER_NAME    : SoundHandler
        VENDOR_ID       : [0][0][0][0]
        ENCODER         : Lavc61.19.100 aac
        BPS             : 193481
        DURATION        : 00:24:04.632000000
        NUMBER_OF_FRAMES: 67718
        NUMBER_OF_BYTES : 34938765
        _STATISTICS_WRITING_APP: mkvpropedit v66.0.0 ('Josie') 64-bit
        _STATISTICS_WRITING_DATE_UTC: 2025-05-05 12:05:24
        _STATISTICS_TAGS: BPS DURATION NUMBER_OF_FRAMES NUMBER_OF_BYTES
Input #1, mov,mp4,m4a,3gp,3g2,mj2, from 'G:\Аниме\Онгоинги\!_35_Лето_2024\JamClub\Я парировал всё время, чтобы стать сильнейшим авантюристом\JamClub_I_Parry_Everything_12_1080p.mp4':
  Metadata:
    major_brand     : isom
    minor_version   : 512
    compatible_brands: isomiso2avc1mp41
    encoder         : Lavf60.16.100
  Duration: 00:24:04.65, start: 0.000000, bitrate: 3984 kb/s
  Stream #1:0[0x1](und): Video: h264 (High) (avc1 / 0x31637661), yuv420p(progressive), 1920x1080 [SAR 1:1 DAR 16:9], 3786 kb/s, 23.98 fps, 23.98 tbr, 90k tbn (default)
      Metadata:
        handler_name    : VideoHandler
        vendor_id       : [0][0][0][0]
  Stream #1:1[0x2](eng): Audio: aac (LC) (mp4a / 0x6134706D), 48000 Hz, stereo, fltp, 191 kb/s (default)
      Metadata:
        handler_name    : SoundHandler
        vendor_id       : [0][0][0][0]
Stream mapping:
  Stream #0:0 (hevc) -> settb:default
  Stream #1:0 (h264) -> settb:default
  ssim:default -> Stream #0:0 (wrapped_avframe)
  Stream #0:1 -> #0:1 (aac (native) -> pcm_s16le (native))
Output #0, null, to 'pipe:':
  Metadata:
    COMPATIBLE_BRANDS: isomiso2avc1mp41
    MAJOR_BRAND     : isom
    MINOR_VERSION   : 512
    encoder         : Lavf61.7.100
  Stream #0:0: Video: wrapped_avframe, yuv420p10le(tv, bt709, progressive), 1920x1080 [SAR 1:1 DAR 16:9], q=2-31, 200 kb/s, 23.98 fps, 23.98 tbn
      Metadata:
        encoder         : Lavc61.19.100 wrapped_avframe
  Stream #0:1(eng): Audio: pcm_s16le, 48000 Hz, stereo, s16, 1536 kb/s (default)
      Metadata:
        HANDLER_NAME    : SoundHandler
        VENDOR_ID       : [0][0][0][0]
        _STATISTICS_TAGS: BPS DURATION NUMBER_OF_FRAMES NUMBER_OF_BYTES
        BPS             : 193481
        DURATION        : 00:24:04.632000000
        NUMBER_OF_FRAMES: 67718
        NUMBER_OF_BYTES : 34938765
        _STATISTICS_WRITING_APP: mkvpropedit v66.0.0 ('Josie') 64-bit
        _STATISTICS_WRITING_DATE_UTC: 2025-05-05 12:05:24
        encoder         : Lavc61.19.100 pcm_s16le
frame=  105 fps=0.0 q=-0.0 size=N/A time=00:00:04.37 bitrate=N/A speed=8.55x    frame=  260 fps=255 q=-0.0 size=N/A time=00:00:10.84 bitrate=N/A speed=10.6x    frame=  439 fps=285 q=-0.0 size=N/A time=00:00:18.30 bitrate=N/A speed=11.9x    frame=  685 fps=332 q=-0.0 size=N/A time=00:00:28.57 bitrate=N/A speed=13.9x    frame=  899 fps=350 q=-0.0 size=N/A time=00:00:37.49 bitrate=N/A speed=14.6x    frame= 1112 fps=360 q=-0.0 size=N/A time=00:00:46.37 bitrate=N/A speed=  15x    frame= 1354 fps=376 q=-0.0 size=N/A time=00:00:56.47 bitrate=N/A speed=15.7x    frame= 1591 fps=386 q=-0.0 size=N/A time=00:01:06.35 bitrate=N/A speed=16.1x    frame= 1833 fps=396 q=-0.0 size=N/A time=00:01:16.45 bitrate=N/A speed=16.5x    frame= 2084 fps=405 q=-0.0 size=N/A time=00:01:26.92 bitrate=N/A speed=16.9x    frame= 2290 fps=404 q=-0.0 size=N/A time=00:01:35.51 bitrate=N/A speed=16.9x    frame= 2539 fps=411 q=-0.0 size=N/A time=00:01:45.89 bitrate=N/A speed=17.1x    frame= 2756 fps=412 q=-0.0 size=N/A time=00:01:54.94 bitrate=N/A speed=17.2x    frame= 2958 fps=410 q=-0.0 size=N/A time=00:02:03.37 bitrate=N/A speed=17.1x    frame= 3161 fps=409 q=-0.0 size=N/A time=00:02:11.84 bitrate=N/A speed=  17x    frame= 3309 fps=401 q=-0.0 size=N/A time=00:02:18.01 bitrate=N/A speed=16.7x    frame= 3487 fps=398 q=-0.0 size=N/A time=00:02:25.43 bitrate=N/A speed=16.6x    frame= 3711 fps=400 q=-0.0 size=N/A time=00:02:34.77 bitrate=N/A speed=16.7x    frame= 3907 fps=399 q=-0.0 size=N/A time=00:02:42.95 bitrate=N/A speed=16.7x    frame= 4050 fps=393 q=-0.0 size=N/A time=00:02:48.91 bitrate=N/A speed=16.4x    frame= 4224 fps=391 q=-0.0 size=N/A time=00:02:56.17 bitrate=N/A speed=16.3x    frame= 4384 fps=387 q=-0.0 size=N/A time=00:03:02.84 bitrate=N/A speed=16.1x    frame= 4620 fps=390 q=-0.0 size=N/A time=00:03:12.69 bitrate=N/A speed=16.3x    frame= 4872 fps=394 q=-0.0 size=N/A time=00:03:23.20 bitrate=N/A speed=16.4x    frame= 5133 fps=398 q=-0.0 size=N/A time=00:03:34.08 bitrate=N/A speed=16.6x    frame= 5406 fps=403 q=-0.0 size=N/A time=00:03:45.47 bitrate=N/A speed=16.8x    frame= 5655 fps=407 q=-0.0 size=N/A time=00:03:55.86 bitrate=N/A speed=  17x    frame= 5887 fps=408 q=-0.0 size=N/A time=00:04:05.53 bitrate=N/A speed=  17x    frame= 6123 fps=409 q=-0.0 size=N/A time=00:04:15.38 bitrate=N/A speed=17.1x    frame= 6365 fps=412 q=-0.0 size=N/A time=00:04:25.47 bitrate=N/A speed=17.2x    frame= 6599 fps=413 q=-0.0 size=N/A time=00:04:35.23 bitrate=N/A speed=17.2x    frame= 6869 fps=416 q=-0.0 size=N/A time=00:04:46.49 bitrate=N/A speed=17.4x    frame= 7149 fps=420 q=-0.0 size=N/A time=00:04:58.17 bitrate=N/A speed=17.5x    frame= 7327 fps=418 q=-0.0 size=N/A time=00:05:05.59 bitrate=N/A speed=17.4x    frame= 7549 fps=419 q=-0.0 size=N/A time=00:05:14.85 bitrate=N/A speed=17.5x    frame= 7820 fps=421 q=-0.0 size=N/A time=00:05:26.15 bitrate=N/A speed=17.6x    frame= 8088 fps=424 q=-0.0 size=N/A time=00:05:37.33 bitrate=N/A speed=17.7x    frame= 8291 fps=423 q=-0.0 size=N/A time=00:05:45.80 bitrate=N/A speed=17.7x    frame= 8535 fps=425 q=-0.0 size=N/A time=00:05:55.98 bitrate=N/A speed=17.7x    frame= 8784 fps=426 q=-0.0 size=N/A time=00:06:06.36 bitrate=N/A speed=17.8x    frame= 9037 fps=428 q=-0.0 size=N/A time=00:06:16.91 bitrate=N/A speed=17.8x    frame= 9321 fps=430 q=-0.0 size=N/A time=00:06:28.76 bitrate=N/A speed=  18x    frame= 9583 fps=432 q=-0.0 size=N/A time=00:06:39.69 bitrate=N/A speed=  18x    frame= 9852 fps=434 q=-0.0 size=N/A time=00:06:50.91 bitrate=N/A speed=18.1x    frame=10111 fps=436 q=-0.0 size=N/A time=00:07:01.71 bitrate=N/A speed=18.2x    frame=10353 fps=437 q=-0.0 size=N/A time=00:07:11.80 bitrate=N/A speed=18.2x    frame=10574 fps=436 q=-0.0 size=N/A time=00:07:21.02 bitrate=N/A speed=18.2x    frame=10779 fps=436 q=-0.0 size=N/A time=00:07:29.57 bitrate=N/A speed=18.2x    frame=10984 fps=435 q=-0.0 size=N/A time=00:07:38.12 bitrate=N/A speed=18.1x    frame=11245 fps=436 q=-0.0 size=N/A time=00:07:49.01 bitrate=N/A speed=18.2x    frame=11495 fps=437 q=-0.0 size=N/A time=00:07:59.43 bitrate=N/A speed=18.2x    frame=11772 fps=439 q=-0.0 size=N/A time=00:08:10.99 bitrate=N/A speed=18.3x    frame=11999 fps=439 q=-0.0 size=N/A time=00:08:20.45 bitrate=N/A speed=18.3x    frame=12251 fps=440 q=-0.0 size=N/A time=00:08:30.96 bitrate=N/A speed=18.4x    frame=12500 fps=441 q=-0.0 size=N/A time=00:08:41.35 bitrate=N/A speed=18.4x    frame=12744 fps=441 q=-0.0 size=N/A time=00:08:51.53 bitrate=N/A speed=18.4x    frame=13001 fps=443 q=-0.0 size=N/A time=00:09:02.25 bitrate=N/A speed=18.5x    frame=13241 fps=443 q=-0.0 size=N/A time=00:09:12.26 bitrate=N/A speed=18.5x    frame=13464 fps=442 q=-0.0 size=N/A time=00:09:21.56 bitrate=N/A speed=18.5x    frame=13692 fps=442 q=-0.0 size=N/A time=00:09:31.07 bitrate=N/A speed=18.4x    frame=13940 fps=443 q=-0.0 size=N/A time=00:09:41.41 bitrate=N/A speed=18.5x    frame=14205 fps=444 q=-0.0 size=N/A time=00:09:52.46 bitrate=N/A speed=18.5x    frame=14420 fps=443 q=-0.0 size=N/A time=00:10:01.43 bitrate=N/A speed=18.5x    frame=14696 fps=445 q=-0.0 size=N/A time=00:10:12.94 bitrate=N/A speed=18.5x    frame=14940 fps=445 q=-0.0 size=N/A time=00:10:23.12 bitrate=N/A speed=18.6x    frame=15176 fps=446 q=-0.0 size=N/A time=00:10:32.96 bitrate=N/A speed=18.6x    frame=15434 fps=446 q=-0.0 size=N/A time=00:10:43.72 bitrate=N/A speed=18.6x    frame=15686 fps=447 q=-0.0 size=N/A time=00:10:54.23 bitrate=N/A speed=18.6x    frame=15935 fps=447 q=-0.0 size=N/A time=00:11:04.62 bitrate=N/A speed=18.7x    frame=16195 fps=448 q=-0.0 size=N/A time=00:11:15.46 bitrate=N/A speed=18.7x    frame=16445 fps=449 q=-0.0 size=N/A time=00:11:25.89 bitrate=N/A speed=18.7x    frame=16663 fps=448 q=-0.0 size=N/A time=00:11:34.98 bitrate=N/A speed=18.7x    frame=16857 fps=447 q=-0.0 size=N/A time=00:11:43.07 bitrate=N/A speed=18.7x    frame=17100 fps=448 q=-0.0 size=N/A time=00:11:53.21 bitrate=N/A speed=18.7x    frame=17338 fps=448 q=-0.0 size=N/A time=00:12:03.13 bitrate=N/A speed=18.7x    frame=17599 fps=449 q=-0.0 size=N/A time=00:12:14.02 bitrate=N/A speed=18.7x    frame=17859 fps=449 q=-0.0 size=N/A time=00:12:24.86 bitrate=N/A speed=18.7x    frame=18112 fps=450 q=-0.0 size=N/A time=00:12:35.42 bitrate=N/A speed=18.8x    frame=18351 fps=450 q=-0.0 size=N/A time=00:12:45.38 bitrate=N/A speed=18.8x    frame=18602 fps=451 q=-0.0 size=N/A time=00:12:55.85 bitrate=N/A speed=18.8x    frame=18867 fps=451 q=-0.0 size=N/A time=00:13:06.91 bitrate=N/A speed=18.8x    frame=19049 fps=450 q=-0.0 size=N/A time=00:13:14.50 bitrate=N/A speed=18.8x    frame=19268 fps=450 q=-0.0 size=N/A time=00:13:23.63 bitrate=N/A speed=18.8x    frame=19507 fps=450 q=-0.0 size=N/A time=00:13:33.60 bitrate=N/A speed=18.8x    frame=19777 fps=451 q=-0.0 size=N/A time=00:13:44.86 bitrate=N/A speed=18.8x    frame=20008 fps=451 q=-0.0 size=N/A time=00:13:54.50 bitrate=N/A speed=18.8x    frame=20260 fps=451 q=-0.0 size=N/A time=00:14:05.01 bitrate=N/A speed=18.8x    frame=20530 fps=452 q=-0.0 size=N/A time=00:14:16.27 bitrate=N/A speed=18.9x    frame=20780 fps=452 q=-0.0 size=N/A time=00:14:26.69 bitrate=N/A speed=18.9x    frame=20985 fps=452 q=-0.0 size=N/A time=00:14:35.24 bitrate=N/A speed=18.8x    frame=21259 fps=453 q=-0.0 size=N/A time=00:14:46.67 bitrate=N/A speed=18.9x    frame=21483 fps=452 q=-0.0 size=N/A time=00:14:56.02 bitrate=N/A speed=18.9x    frame=21711 fps=452 q=-0.0 size=N/A time=00:15:05.52 bitrate=N/A speed=18.9x    frame=21978 fps=453 q=-0.0 size=N/A time=00:15:16.66 bitrate=N/A speed=18.9x    frame=22241 fps=454 q=-0.0 size=N/A time=00:15:27.63 bitrate=N/A speed=18.9x    frame=22517 fps=454 q=-0.0 size=N/A time=00:15:39.14 bitrate=N/A speed=  19x    frame=22765 fps=455 q=-0.0 size=N/A time=00:15:49.49 bitrate=N/A speed=  19x    frame=23023 fps=455 q=-0.0 size=N/A time=00:16:00.25 bitrate=N/A speed=  19x    frame=23275 fps=456 q=-0.0 size=N/A time=00:16:10.76 bitrate=N/A speed=  19x    frame=23557 fps=456 q=-0.0 size=N/A time=00:16:22.52 bitrate=N/A speed=  19x    frame=23836 fps=457 q=-0.0 size=N/A time=00:16:34.15 bitrate=N/A speed=19.1x    frame=24121 fps=458 q=-0.0 size=N/A time=00:16:46.04 bitrate=N/A speed=19.1x    frame=24376 fps=459 q=-0.0 size=N/A time=00:16:56.68 bitrate=N/A speed=19.1x    frame=24655 fps=459 q=-0.0 size=N/A time=00:17:08.31 bitrate=N/A speed=19.2x    frame=24913 fps=460 q=-0.0 size=N/A time=00:17:19.07 bitrate=N/A speed=19.2x    frame=25172 fps=460 q=-0.0 size=N/A time=00:17:29.88 bitrate=N/A speed=19.2x    frame=25435 fps=461 q=-0.0 size=N/A time=00:17:40.85 bitrate=N/A speed=19.2x    frame=25661 fps=460 q=-0.0 size=N/A time=00:17:50.27 bitrate=N/A speed=19.2x    frame=25931 fps=461 q=-0.0 size=N/A time=00:18:01.53 bitrate=N/A speed=19.2x    frame=26193 fps=461 q=-0.0 size=N/A time=00:18:12.46 bitrate=N/A speed=19.2x    frame=26429 fps=461 q=-0.0 size=N/A time=00:18:22.30 bitrate=N/A speed=19.2x    frame=26707 fps=462 q=-0.0 size=N/A time=00:18:33.90 bitrate=N/A speed=19.3x    frame=26988 fps=463 q=-0.0 size=N/A time=00:18:45.62 bitrate=N/A speed=19.3x    frame=27281 fps=464 q=-0.0 size=N/A time=00:18:57.84 bitrate=N/A speed=19.3x    frame=27558 fps=464 q=-0.0 size=N/A time=00:19:09.39 bitrate=N/A speed=19.4x    frame=27810 fps=465 q=-0.0 size=N/A time=00:19:19.90 bitrate=N/A speed=19.4x    frame=28058 fps=465 q=-0.0 size=N/A time=00:19:30.25 bitrate=N/A speed=19.4x    frame=28302 fps=465 q=-0.0 size=N/A time=00:19:40.42 bitrate=N/A speed=19.4x    frame=28504 fps=464 q=-0.0 size=N/A time=00:19:48.85 bitrate=N/A speed=19.4x    frame=28701 fps=464 q=-0.0 size=N/A time=00:19:57.07 bitrate=N/A speed=19.3x    frame=28967 fps=464 q=-0.0 size=N/A time=00:20:08.16 bitrate=N/A speed=19.4x    frame=29214 fps=464 q=-0.0 size=N/A time=00:20:18.46 bitrate=N/A speed=19.4x    frame=29476 fps=464 q=-0.0 size=N/A time=00:20:29.39 bitrate=N/A speed=19.4x    frame=29715 fps=464 q=-0.0 size=N/A time=00:20:39.36 bitrate=N/A speed=19.4x    frame=29923 fps=464 q=-0.0 size=N/A time=00:20:48.03 bitrate=N/A speed=19.3x    frame=30120 fps=463 q=-0.0 size=N/A time=00:20:56.25 bitrate=N/A speed=19.3x    frame=30330 fps=463 q=-0.0 size=N/A time=00:21:05.01 bitrate=N/A speed=19.3x    frame=30551 fps=463 q=-0.0 size=N/A time=00:21:14.23 bitrate=N/A speed=19.3x    frame=30829 fps=463 q=-0.0 size=N/A time=00:21:25.82 bitrate=N/A speed=19.3x    frame=31079 fps=463 q=-0.0 size=N/A time=00:21:36.25 bitrate=N/A speed=19.3x    frame=31369 fps=464 q=-0.0 size=N/A time=00:21:48.34 bitrate=N/A speed=19.4x    frame=31619 fps=464 q=-0.0 size=N/A time=00:21:58.77 bitrate=N/A speed=19.4x    frame=31876 fps=464 q=-0.0 size=N/A time=00:22:09.49 bitrate=N/A speed=19.4x    frame=32131 fps=465 q=-0.0 size=N/A time=00:22:20.13 bitrate=N/A speed=19.4x    frame=32387 fps=465 q=-0.0 size=N/A time=00:22:30.80 bitrate=N/A speed=19.4x    frame=32645 fps=465 q=-0.0 size=N/A time=00:22:41.56 bitrate=N/A speed=19.4x    frame=32897 fps=465 q=-0.0 size=N/A time=00:22:52.07 bitrate=N/A speed=19.4x    frame=33123 fps=465 q=-0.0 size=N/A time=00:23:01.50 bitrate=N/A speed=19.4x    frame=33341 fps=465 q=-0.0 size=N/A time=00:23:10.59 bitrate=N/A speed=19.4x    frame=33569 fps=465 q=-0.0 size=N/A time=00:23:20.10 bitrate=N/A speed=19.4x    frame=33815 fps=465 q=-0.0 size=N/A time=00:23:30.36 bitrate=N/A speed=19.4x    frame=33955 fps=463 q=-0.0 size=N/A time=00:23:36.20 bitrate=N/A speed=19.3x    frame=34169 fps=463 q=-0.0 size=N/A time=00:23:45.13 bitrate=N/A speed=19.3x    frame=34387 fps=463 q=-0.0 size=N/A time=00:23:54.22 bitrate=N/A speed=19.3x    frame=34577 fps=462 q=-0.0 size=N/A time=00:24:02.14 bitrate=N/A speed=19.3x    [Parsed_ssim_10 @ 000001085fd7a940] SSIM Y:0.994076 (22.273584) U:0.994371 (22.495758) V:0.994881 (22.907828) All:0.994259 (22.410158)
[out#0/null @ 00000108596f5ec0] video:14883KiB audio:270872KiB subtitle:0KiB other streams:0KiB global headers:0KiB muxing overhead: unknown
frame=34637 fps=462 q=-0.0 Lsize=N/A time=00:24:04.65 bitrate=N/A speed=19.3x    
